<svg width="26" height="27" viewBox="0 0 26 27" fill="none" xmlns="http://www.w3.org/2000/svg">
<path d="M20.518 5.23403H3.20203C2.6647 5.23403 2.16203 5.36403 1.69403 5.62403C1.22603 5.88403 0.853368 6.23936 0.576034 6.69003C0.298701 7.1407 0.160034 7.6347 0.160034 8.17203V18.988C0.160034 19.5254 0.294368 20.028 0.563034 20.496C0.831701 20.964 1.1957 21.3367 1.65503 21.614C2.11437 21.8914 2.63003 22.03 3.20203 22.03H20.518C21.0554 22.03 21.558 21.8957 22.026 21.627C22.494 21.3584 22.8667 20.9944 23.144 20.535C23.4214 20.0757 23.56 19.56 23.56 18.988V8.17203C23.56 7.6347 23.4214 7.1407 23.144 6.69003C22.8667 6.23936 22.494 5.88403 22.026 5.62403C21.558 5.36403 21.0554 5.23403 20.518 5.23403ZM3.20203 6.87203H20.518C20.8994 6.87203 21.2114 7.00203 21.454 7.26203C21.6967 7.52203 21.818 7.82536 21.818 8.17203V10.538H1.90203V8.17203C1.90203 7.7907 2.02337 7.4787 2.26603 7.23603C2.5087 6.99336 2.8207 6.87203 3.20203 6.87203ZM20.518 20.392H3.20203C2.83803 20.392 2.53037 20.2577 2.27903 19.989C2.0277 19.7204 1.90203 19.4214 1.90203 19.092V12.384H21.948V18.988C21.8787 19.3867 21.7184 19.7204 21.467 19.989C21.2157 20.2577 20.8994 20.392 20.518 20.392Z" fill="#6B7280"/>
</svg>
