<svg width="12" height="12" viewBox="0 0 12 12" fill="none" xmlns="http://www.w3.org/2000/svg">
<path d="M6.79212 0.515004C6.73345 0.397671 6.64912 0.304171 6.53912 0.234504C6.42912 0.164837 6.30812 0.130004 6.17612 0.130004C6.04412 0.130004 5.92129 0.164837 5.80762 0.234504C5.69395 0.304171 5.60779 0.397671 5.54912 0.515004L4.17412 3.364L1.08312 3.815C0.958452 3.82967 0.844786 3.87917 0.742119 3.9635C0.639452 4.04784 0.569786 4.15234 0.533119 4.277C0.496452 4.40167 0.492786 4.52817 0.522119 4.6565C0.551452 4.78484 0.613786 4.893 0.709119 4.981L2.94212 7.203L2.41412 10.327C2.39212 10.459 2.40679 10.5837 2.45812 10.701C2.50945 10.8183 2.58645 10.9173 2.68912 10.998C2.79179 11.0787 2.90912 11.1227 3.04112 11.13C3.17312 11.1373 3.29779 11.1117 3.41512 11.053L6.17612 9.579L8.93712 11.053C9.05445 11.1117 9.17729 11.1373 9.30562 11.13C9.43395 11.1227 9.55312 11.0805 9.66312 11.0035C9.77312 10.9265 9.85195 10.8275 9.89962 10.7065C9.94729 10.5855 9.96012 10.459 9.93812 10.327L9.39912 7.203L11.6431 4.981C11.7385 4.893 11.8008 4.78484 11.8301 4.6565C11.8595 4.52817 11.8521 4.40167 11.8081 4.277C11.7641 4.15234 11.6945 4.04784 11.5991 3.9635C11.5038 3.87917 11.3901 3.82967 11.2581 3.815L8.17812 3.364L6.79212 0.515004Z" fill="#D1D5DB"/>
</svg>
