<svg width="23" height="23" viewBox="0 0 23 23" fill="none" xmlns="http://www.w3.org/2000/svg">
<path d="M18.356 13.192C18.1653 13.192 17.9967 13.258 17.85 13.39C17.7033 13.522 17.63 13.698 17.63 13.918V17.592C17.63 17.9 17.5163 18.1604 17.289 18.373C17.0617 18.5857 16.8087 18.692 16.53 18.692H3.682C3.374 18.692 3.11367 18.5784 2.901 18.351C2.68834 18.1237 2.582 17.8707 2.582 17.592V13.918C2.582 13.7274 2.516 13.5587 2.384 13.412C2.252 13.2654 2.076 13.192 1.856 13.192C1.636 13.192 1.46 13.2507 1.328 13.368C1.196 13.4854 1.13 13.6394 1.13 13.83V17.504C1.13 17.9587 1.24367 18.3804 1.471 18.769C1.69834 19.1577 2.00634 19.4694 2.395 19.704C2.78367 19.9387 3.21267 20.056 3.682 20.056H16.53C16.9847 20.056 17.4063 19.9424 17.795 19.715C18.1837 19.4877 18.4953 19.1797 18.73 18.791C18.9647 18.4024 19.082 17.9734 19.082 17.504V13.83C19.082 13.654 19.0087 13.5037 18.862 13.379C18.7153 13.2544 18.5467 13.192 18.356 13.192ZM5.992 7.86803L9.38 4.48003V13.83C9.38 14.0207 9.446 14.1894 9.578 14.336C9.71 14.4827 9.88967 14.556 10.117 14.556C10.3443 14.556 10.5203 14.4937 10.645 14.369C10.7697 14.2444 10.832 14.0647 10.832 13.83V4.48003L14.242 7.86803C14.3593 7.98536 14.506 8.04403 14.682 8.04403C14.77 8.04403 14.858 8.0257 14.946 7.98903C15.034 7.95236 15.1 7.91203 15.144 7.86803C15.2907 7.73603 15.364 7.57103 15.364 7.37303C15.364 7.17503 15.2907 7.0027 15.144 6.85603L10.568 2.28003C10.5387 2.2507 10.502 2.22136 10.458 2.19203C10.414 2.1627 10.392 2.13336 10.392 2.10403C10.2013 2.00136 10.018 2.00136 9.842 2.10403C9.78334 2.10403 9.73567 2.12236 9.69901 2.15903C9.66234 2.1957 9.644 2.23603 9.644 2.28003L5.068 6.85603C4.92134 7.0027 4.848 7.17503 4.848 7.37303C4.848 7.57103 4.92134 7.73603 5.068 7.86803C5.21467 8.00003 5.36867 8.0697 5.53 8.07703C5.69134 8.08436 5.84534 8.0147 5.992 7.86803Z" fill="#030712"/>
</svg>
