<svg width="26" height="27" viewBox="0 0 26 27" fill="none" xmlns="http://www.w3.org/2000/svg">
<path d="M18.698 5.23403L10.04 1.98403C9.78003 1.88003 9.59803 1.88003 9.49403 1.98403L0.810034 5.23403C0.602034 5.28603 0.441701 5.3857 0.329034 5.53303C0.216368 5.68036 0.160034 5.83203 0.160034 5.98803V13.58C0.160034 15.5214 0.836034 17.428 2.18803 19.3C3.2107 20.6694 4.55403 21.978 6.21803 23.226C7.10203 23.8847 8.06403 24.5 9.10403 25.072L9.26003 25.176C9.3467 25.2454 9.45937 25.28 9.59803 25.28C9.7367 25.28 9.8407 25.2454 9.91003 25.176L10.04 25.098C11.028 24.5607 11.964 23.9627 12.848 23.304C14.5467 22.056 15.9074 20.7387 16.93 19.352C18.3167 17.4627 19.01 15.5387 19.01 13.58V5.98803C19.114 5.83203 19.1314 5.68036 19.062 5.53303C18.9927 5.3857 18.8714 5.28603 18.698 5.23403ZM17.502 13.58C17.502 15.14 16.9387 16.7 15.812 18.26C14.9454 19.4387 13.7927 20.574 12.354 21.666C11.4354 22.3594 10.5167 22.9487 9.59803 23.434C8.71403 22.966 7.79537 22.3767 6.84203 21.666C5.43803 20.574 4.31137 19.4387 3.46203 18.26C2.3527 16.7 1.79803 15.14 1.79803 13.58V6.53403L9.70203 3.62203L17.502 6.53403V13.58ZM6.99803 13.034C6.8247 12.878 6.62537 12.8 6.40003 12.8C6.1747 12.8 5.97537 12.878 5.80203 13.034C5.6287 13.19 5.54637 13.385 5.55503 13.619C5.5637 13.853 5.64603 14.0567 5.80203 14.23L7.96003 16.388C8.1507 16.544 8.3327 16.622 8.50603 16.622C8.61003 16.622 8.71403 16.596 8.81803 16.544C8.92203 16.492 9.00003 16.44 9.05203 16.388L13.394 12.072C13.55 11.8987 13.628 11.695 13.628 11.461C13.628 11.227 13.55 11.032 13.394 10.876C13.238 10.72 13.0387 10.6377 12.796 10.629C12.5534 10.6204 12.354 10.7027 12.198 10.876L8.61003 14.542L6.99803 13.034Z" fill="#6B7280"/>
</svg>
